<svg width="160" height="160" viewBox="0 0 160 160" fill="none" xmlns="http://www.w3.org/2000/svg">
  <!-- Main rounded square -->
  <rect x="18" y="18" width="124" height="124" rx="34" fill="#F7F6F7"/>

  <!-- Left mint block -->
  <path d="M18 52C18 33.2 33.2 18 52 18H78V142H52C33.2 142 18 126.8 18 108V52Z" fill="#ABD8D3"/>

  <!-- Top-right sand block -->
  <path d="M90 18H108C126.8 18 142 33.2 142 52V70H90V18Z" fill="#EDE1B1"/>

  <!-- Bottom-right rose block -->
  <path d="M90 82H142V108C142 126.8 126.8 142 108 142H90V82Z" fill="#EBCDCE"/>

  <!-- White inner separators -->
  <rect x="78" y="18" width="12" height="124" fill="#F7F6F7"/>
  <rect x="90" y="70" width="52" height="12" fill="#F7F6F7"/>

  <!-- Check outer stroke -->
  <path
    d="M44 77L67 99L118 48"
    stroke="#F7F6F7"
    stroke-width="26"
    stroke-linecap="round"
    stroke-linejoin="round"
  />

  <!-- Check inner stroke -->
  <path
    d="M44 77L67 99L118 48"
    stroke="#8FD4CB"
    stroke-width="16"
    stroke-linecap="round"
    stroke-linejoin="round"
  />
</svg>