<svg width="48" height="48" viewBox="0 0 48 48" fill="none" xmlns="http://www.w3.org/2000/svg">
<path d="M0.777799 22.7716C1.90624 23.4187 2.88091 23.9778 4.17735 23.9778C5.49913 23.9778 6.51469 23.4044 7.69069 22.7409C8.91513 22.0498 10.3036 21.2662 12.0885 21.2662C13.8778 21.2662 15.2782 22.0529 16.5138 22.7467C17.6898 23.4071 18.7054 23.9778 19.9996 23.9778C21.2974 23.9778 22.3689 23.3778 23.5031 22.7422C24.7378 22.0507 26.1374 21.2662 27.9107 21.2662C29.6858 21.2662 31.0894 22.0516 32.328 22.744C33.4622 23.3782 34.5334 23.9773 35.8218 23.9773C37.092 23.9773 38.084 23.416 39.2325 22.7662C40.4751 22.0636 41.8836 21.2667 43.7329 21.2667C45.4302 21.2667 46.7738 21.9373 47.9587 22.5942C47.2307 9.99378 36.7822 0 23.9996 0C11.2942 0 0.895576 9.87245 0.0546875 22.3644C0.303132 22.4996 0.543576 22.6373 0.777799 22.7716Z" fill="#25A9C4"/>
<path d="M47.0967 24.9118C45.9465 24.2674 44.9531 23.7109 43.7331 23.7109C42.5278 23.7109 41.5585 24.2594 40.4367 24.894C39.1709 25.6105 37.7358 26.4225 35.822 26.4225C33.8967 26.4225 32.4296 25.602 31.1349 24.878C30.0153 24.2518 29.0487 23.7109 27.9109 23.7109C26.7753 23.7109 25.8127 24.2505 24.698 24.8749C23.4033 25.6003 21.9358 26.4225 19.9998 26.4225C18.0665 26.4225 16.6056 25.602 15.3171 24.8785C14.2016 24.2523 13.2385 23.7109 12.0887 23.7109C10.9456 23.7109 9.99401 24.2478 8.89223 24.87C7.6029 25.5976 6.14112 26.4225 4.17757 26.4225C2.46779 26.4225 1.16601 25.7958 0.0273438 25.1572C0.631344 37.8745 11.1331 47.9998 23.9998 47.9998C36.7896 47.9998 47.2425 37.9949 47.9602 25.3847C47.662 25.2292 47.3754 25.0683 47.0967 24.9118Z" fill="#25A9C4"/>
<path d="M47.9591 22.5942C46.7747 21.9377 45.4307 21.2666 43.7333 21.2666C41.884 21.2666 40.4756 22.0635 39.2329 22.7666C38.0844 23.4164 37.092 23.9777 35.8222 23.9777C34.5338 23.9777 33.4627 23.3786 32.3284 22.7444C31.0898 22.0515 29.6862 21.2666 27.9111 21.2666C26.1373 21.2666 24.7382 22.0506 23.5036 22.7426C22.3693 23.3782 21.2982 23.9782 20 23.9782C18.7062 23.9782 17.6902 23.4079 16.5142 22.747C15.2787 22.0533 13.8778 21.2666 12.0889 21.2666C10.3036 21.2666 8.91556 22.0502 7.69111 22.7413C6.51511 23.4048 5.49956 23.9782 4.17778 23.9782C2.88178 23.9782 1.90711 23.419 0.778222 22.7719C0.544 22.6377 0.303556 22.4999 0.0551111 22.3648C0.0186667 22.9048 0 23.4502 0 23.9999C0 24.3879 0.00977778 24.7737 0.0275556 25.1573C1.16622 25.7959 2.46756 26.4226 4.17778 26.4226C6.14133 26.4226 7.60311 25.5977 8.89244 24.8702C9.99422 24.2484 10.9458 23.711 12.0889 23.711C13.2387 23.711 14.2018 24.2519 15.3173 24.8786C16.6062 25.6022 18.0667 26.4226 20 26.4226C21.936 26.4226 23.4036 25.6004 24.6982 24.875C25.8129 24.2506 26.7756 23.711 27.9111 23.711C29.0489 23.711 30.0156 24.2519 31.1351 24.8777C32.4293 25.6017 33.8964 26.4222 35.8222 26.4222C37.736 26.4222 39.1707 25.6102 40.4369 24.8937C41.5591 24.2586 42.528 23.7106 43.7333 23.7106C44.9533 23.7106 45.9467 24.267 47.0969 24.9115C47.3756 25.0675 47.6627 25.2284 47.9604 25.3839C47.9867 24.9257 48 24.4639 48 23.999C48 23.5279 47.9858 23.059 47.9591 22.5942Z" fill="white"/>
</svg>
